<mxfile host="app.diagrams.net" modified="2020-11-27T09:37:39.768Z" agent="5.0 (Macintosh; Intel Mac OS X 10_14_6) AppleWebKit/537.36 (KHTML, like Gecko) Chrome/87.0.4280.67 Safari/537.36" etag="pOK4KqykcrtzaP0MUVtD" version="13.10.4" type="github">
  <diagram name="Page-1" id="90a13364-a465-7bf4-72fc-28e22215d7a0">
    <mxGraphModel dx="788" dy="480" grid="1" gridSize="10" guides="1" tooltips="1" connect="1" arrows="1" fold="1" page="1" pageScale="1.5" pageWidth="1169" pageHeight="826" background="#ffffff" math="0" shadow="0">
      <root>
        <mxCell id="0" style=";html=1;" />
        <mxCell id="1" style=";html=1;" parent="0" />
        <mxCell id="ozlNwiNzSzBw2VRKPBTO-1" value="&lt;font style=&quot;font-size: 18px&quot; face=&quot;Comic Sans MS&quot;&gt;2 &amp;lt;&amp;lt; 3&lt;/font&gt;" style="text;html=1;strokeColor=none;fillColor=none;align=center;verticalAlign=middle;whiteSpace=wrap;rounded=0;" vertex="1" parent="1">
          <mxGeometry x="800" y="40" width="90" height="20" as="geometry" />
        </mxCell>
        <mxCell id="ozlNwiNzSzBw2VRKPBTO-6" value="" style="group" vertex="1" connectable="0" parent="1">
          <mxGeometry x="800" y="80" width="640" height="30" as="geometry" />
        </mxCell>
        <mxCell id="ozlNwiNzSzBw2VRKPBTO-2" value="" style="rounded=1;whiteSpace=wrap;html=1;strokeWidth=1;fillWeight=4;hachureGap=8;hachureAngle=45;fillColor=#d5e8d4;sketch=1;strokeColor=#82b366;" vertex="1" parent="ozlNwiNzSzBw2VRKPBTO-6">
          <mxGeometry width="640" height="30" as="geometry" />
        </mxCell>
        <mxCell id="ozlNwiNzSzBw2VRKPBTO-3" value="" style="line;strokeWidth=2;direction=south;html=1;strokeColor=#9AC7BF;" vertex="1" parent="ozlNwiNzSzBw2VRKPBTO-6">
          <mxGeometry x="274" width="90" height="30" as="geometry" />
        </mxCell>
        <mxCell id="ozlNwiNzSzBw2VRKPBTO-4" value="" style="line;strokeWidth=2;direction=south;html=1;strokeColor=#9AC7BF;" vertex="1" parent="ozlNwiNzSzBw2VRKPBTO-6">
          <mxGeometry x="116" width="90" height="30" as="geometry" />
        </mxCell>
        <mxCell id="ozlNwiNzSzBw2VRKPBTO-5" value="" style="line;strokeWidth=2;direction=south;html=1;strokeColor=#9AC7BF;" vertex="1" parent="ozlNwiNzSzBw2VRKPBTO-6">
          <mxGeometry x="436" width="90" height="30" as="geometry" />
        </mxCell>
        <mxCell id="ozlNwiNzSzBw2VRKPBTO-7" value="&lt;font style=&quot;font-size: 18px&quot; face=&quot;Comic Sans MS&quot;&gt;0 0 0 0 0 0 0 0&lt;/font&gt;" style="text;html=1;strokeColor=none;fillColor=none;align=center;verticalAlign=middle;whiteSpace=wrap;rounded=0;" vertex="1" parent="ozlNwiNzSzBw2VRKPBTO-6">
          <mxGeometry x="10" y="5" width="140" height="20" as="geometry" />
        </mxCell>
        <mxCell id="ozlNwiNzSzBw2VRKPBTO-14" value="&lt;font style=&quot;font-size: 18px&quot; face=&quot;Comic Sans MS&quot;&gt;0 0 0 0 0 0 0 0&lt;/font&gt;" style="text;html=1;strokeColor=none;fillColor=none;align=center;verticalAlign=middle;whiteSpace=wrap;rounded=0;" vertex="1" parent="ozlNwiNzSzBw2VRKPBTO-6">
          <mxGeometry x="170" y="5" width="140" height="20" as="geometry" />
        </mxCell>
        <mxCell id="ozlNwiNzSzBw2VRKPBTO-15" value="&lt;font style=&quot;font-size: 18px&quot; face=&quot;Comic Sans MS&quot;&gt;0 0 0 0 0 0 0 0&lt;/font&gt;" style="text;html=1;strokeColor=none;fillColor=none;align=center;verticalAlign=middle;whiteSpace=wrap;rounded=0;" vertex="1" parent="ozlNwiNzSzBw2VRKPBTO-6">
          <mxGeometry x="330" y="5" width="140" height="20" as="geometry" />
        </mxCell>
        <mxCell id="ozlNwiNzSzBw2VRKPBTO-16" value="&lt;font style=&quot;font-size: 18px&quot; face=&quot;Comic Sans MS&quot;&gt;0 0 0 0 0 0 1 0&lt;/font&gt;" style="text;html=1;strokeColor=none;fillColor=none;align=center;verticalAlign=middle;whiteSpace=wrap;rounded=0;" vertex="1" parent="ozlNwiNzSzBw2VRKPBTO-6">
          <mxGeometry x="490" y="5" width="140" height="20" as="geometry" />
        </mxCell>
        <mxCell id="ozlNwiNzSzBw2VRKPBTO-17" value="&lt;font style=&quot;font-size: 18px&quot; face=&quot;Comic Sans MS&quot;&gt;2&amp;nbsp;&lt;/font&gt;" style="text;html=1;strokeColor=none;fillColor=none;align=center;verticalAlign=middle;whiteSpace=wrap;rounded=0;" vertex="1" parent="1">
          <mxGeometry x="1450" y="85" width="40" height="20" as="geometry" />
        </mxCell>
        <mxCell id="ozlNwiNzSzBw2VRKPBTO-18" value="" style="group" vertex="1" connectable="0" parent="1">
          <mxGeometry x="800" y="130" width="640" height="30" as="geometry" />
        </mxCell>
        <mxCell id="ozlNwiNzSzBw2VRKPBTO-19" value="" style="rounded=1;whiteSpace=wrap;html=1;strokeWidth=1;fillWeight=4;hachureGap=8;hachureAngle=45;fillColor=#d5e8d4;sketch=1;strokeColor=#82b366;" vertex="1" parent="ozlNwiNzSzBw2VRKPBTO-18">
          <mxGeometry width="640" height="30" as="geometry" />
        </mxCell>
        <mxCell id="ozlNwiNzSzBw2VRKPBTO-20" value="" style="line;strokeWidth=2;direction=south;html=1;strokeColor=#9AC7BF;" vertex="1" parent="ozlNwiNzSzBw2VRKPBTO-18">
          <mxGeometry x="274" width="90" height="30" as="geometry" />
        </mxCell>
        <mxCell id="ozlNwiNzSzBw2VRKPBTO-21" value="" style="line;strokeWidth=2;direction=south;html=1;strokeColor=#9AC7BF;" vertex="1" parent="ozlNwiNzSzBw2VRKPBTO-18">
          <mxGeometry x="116" width="90" height="30" as="geometry" />
        </mxCell>
        <mxCell id="ozlNwiNzSzBw2VRKPBTO-22" value="" style="line;strokeWidth=2;direction=south;html=1;strokeColor=#9AC7BF;" vertex="1" parent="ozlNwiNzSzBw2VRKPBTO-18">
          <mxGeometry x="436" width="90" height="30" as="geometry" />
        </mxCell>
        <mxCell id="ozlNwiNzSzBw2VRKPBTO-23" value="&lt;font style=&quot;font-size: 18px&quot; face=&quot;Comic Sans MS&quot;&gt;0 0 0 0 0 0 0 0&lt;/font&gt;" style="text;html=1;strokeColor=none;fillColor=none;align=center;verticalAlign=middle;whiteSpace=wrap;rounded=0;" vertex="1" parent="ozlNwiNzSzBw2VRKPBTO-18">
          <mxGeometry x="-54" y="5" width="140" height="20" as="geometry" />
        </mxCell>
        <mxCell id="ozlNwiNzSzBw2VRKPBTO-24" value="&lt;font style=&quot;font-size: 18px&quot; face=&quot;Comic Sans MS&quot;&gt;0 0 0 0 0 0 0 0&lt;/font&gt;" style="text;html=1;strokeColor=none;fillColor=none;align=center;verticalAlign=middle;whiteSpace=wrap;rounded=0;" vertex="1" parent="ozlNwiNzSzBw2VRKPBTO-18">
          <mxGeometry x="107" y="5" width="140" height="20" as="geometry" />
        </mxCell>
        <mxCell id="ozlNwiNzSzBw2VRKPBTO-25" value="&lt;font style=&quot;font-size: 18px&quot; face=&quot;Comic Sans MS&quot;&gt;0 0 0 0 0 0 0 0&lt;/font&gt;" style="text;html=1;strokeColor=none;fillColor=none;align=center;verticalAlign=middle;whiteSpace=wrap;rounded=0;" vertex="1" parent="ozlNwiNzSzBw2VRKPBTO-18">
          <mxGeometry x="264" y="5" width="140" height="20" as="geometry" />
        </mxCell>
        <mxCell id="ozlNwiNzSzBw2VRKPBTO-26" value="&lt;font style=&quot;font-size: 18px&quot; face=&quot;Comic Sans MS&quot;&gt;0 0 0 0 0 0 1 0&lt;/font&gt;" style="text;html=1;strokeColor=none;fillColor=none;align=center;verticalAlign=middle;whiteSpace=wrap;rounded=0;" vertex="1" parent="ozlNwiNzSzBw2VRKPBTO-18">
          <mxGeometry x="426" y="5" width="140" height="20" as="geometry" />
        </mxCell>
        <mxCell id="ozlNwiNzSzBw2VRKPBTO-28" value="&lt;font style=&quot;font-size: 18px&quot; face=&quot;Comic Sans MS&quot;&gt;? ? ?&lt;/font&gt;" style="text;html=1;strokeColor=none;fillColor=none;align=center;verticalAlign=middle;whiteSpace=wrap;rounded=0;" vertex="1" parent="ozlNwiNzSzBw2VRKPBTO-18">
          <mxGeometry x="574" y="5" width="50" height="20" as="geometry" />
        </mxCell>
        <mxCell id="ozlNwiNzSzBw2VRKPBTO-27" value="&lt;font style=&quot;font-size: 18px&quot; face=&quot;Comic Sans MS&quot;&gt;16&lt;/font&gt;" style="text;html=1;strokeColor=none;fillColor=none;align=center;verticalAlign=middle;whiteSpace=wrap;rounded=0;" vertex="1" parent="1">
          <mxGeometry x="1450" y="135" width="40" height="20" as="geometry" />
        </mxCell>
      </root>
    </mxGraphModel>
  </diagram>
</mxfile>
